<svg width="81" height="93" viewBox="0 0 81 93" fill="none" xmlns="http://www.w3.org/2000/svg">
<g clip-path="url(#clip0_450_1269)">
<path d="M34.6604 -2.99634e-05C36.5504 0.684222 38.0181 1.93626 38.2304 4.0885C38.376 5.56134 38.4524 10.7248 38.1923 12.035C37.999 13.0032 36.9967 13.5831 36.0898 13.6219V24.1575H44.039C47.5757 24.1575 52.3461 29.0224 52.3461 32.6038V46.136H62.2594C63.3523 46.136 64.789 47.1551 65.2782 48.1499C65.3665 48.3271 65.7411 49.3995 65.7411 49.4942V53.5803H74.5828C77.3797 53.5803 80.6611 57.3898 80.7446 60.2117C80.1408 68.5634 81.5679 78.1333 80.7255 86.3419C80.3508 90.0033 77.4561 92.7306 73.8765 93L36.7175 92.9903C34.6365 92.7403 32.6176 91.6048 31.4029 89.8553C30.7944 88.9794 30.6225 88.0695 30.0808 87.2057L17.2562 87.1766C17.2514 95.1207 6.85614 94.798 7.32149 86.8223C3.30753 86.1211 0.312567 82.263 -0.00244141 78.1939L0.0261957 32.8028C0.140744 28.9763 4.5437 24.1526 8.31186 24.1526H16.261V13.6171C15.3542 13.5782 14.3519 13.0008 14.1586 12.0302C13.8985 10.7199 13.9748 5.55406 14.1204 4.08364C14.3328 1.93868 15.7814 0.650252 17.6905 -0.00488281H34.6604V-2.99634e-05ZM35.3763 10.7151V4.08607C35.3763 3.7488 34.3358 2.77337 33.8609 2.90197C28.9664 3.25138 23.4871 2.45066 18.6642 2.89712C18.0962 2.9505 16.9746 3.46976 16.9746 4.08607V10.7151H18.404V5.5395C18.404 4.82856 19.7046 4.42092 20.2822 4.36268C23.153 4.06908 28.9902 4.10548 31.8969 4.35298C32.6605 4.41849 33.9444 4.73392 33.9444 5.72148V10.7151H35.3739H35.3763ZM33.2309 13.6219C32.4959 13.7457 31.0879 12.7824 31.0879 12.0787V7.53887L30.8206 7.26711H21.5326L21.2654 7.53887V12.0787C21.2654 12.7338 19.812 13.7457 19.1224 13.6219V24.1575H33.2333V13.6219H33.2309ZM8.66982 84.2746H30.0164V60.3913C30.0164 58.6103 31.527 56.213 32.8729 55.1211C34.3835 53.8957 35.9777 53.6701 37.7985 53.4104L37.882 37.1485C38.4428 35.4622 40.7362 36.1513 40.7362 37.6896V53.5827H45.2012V48.9507C45.2012 48.8536 45.5639 48.1378 45.6594 47.9631C46.4875 46.432 47.9456 46.2792 49.4944 46.0317L49.4443 32.8319C48.9884 30.1556 47.2607 28.0955 44.7048 27.2997C32.4171 26.909 19.9409 26.909 7.6532 27.2997C4.93745 28.1368 3.13809 30.4516 2.86127 33.3245L2.86843 78.1915C3.19298 81.2609 5.62236 83.9106 8.67221 84.277L8.66982 84.2746ZM62.8846 53.5803V49.8557C62.8846 49.4457 61.9897 48.9021 61.553 49.0307C57.5987 49.3923 52.8974 48.577 49.0362 49.0356C48.6353 49.0841 48.3298 49.1715 48.0577 49.4942V53.5803H62.8846ZM41.9843 56.4871H36.3571C34.9014 56.4871 32.713 59.2144 32.8968 60.7771C33.2691 68.7746 32.3288 77.352 32.8658 85.2815C32.9803 86.9655 33.6175 88.6639 35.1353 89.5132C35.3047 89.6078 36.4597 90.0858 36.5361 90.0858H41.9843V56.4847V56.4871ZM44.8432 56.4871V90.0883H65.9225V56.4871H44.8432ZM68.7791 90.0858H74.2273C76.2056 90.0858 77.7639 87.4701 77.8976 85.6431C78.4918 77.5121 77.4537 68.6193 77.8689 60.4082C77.9405 58.95 75.7331 56.4823 74.4062 56.4823H68.7791V90.0834V90.0858ZM14.297 87.1814H10.1876C9.99667 91.02 14.6979 91.0782 14.297 87.1814Z" fill="#1A243D"/>
<path d="M27.5227 31.8228H24.6494V79.4608H27.5227V31.8228Z" fill="#1A243D"/>
<path d="M12.8197 36.1756C13.4902 36.0349 13.9818 36.3576 14.3828 36.8745L14.4782 73.8362C14.4114 74.9329 13.4043 75.4449 12.4641 74.9693C11.6861 74.5762 11.6646 73.7294 11.6097 72.9311C10.8174 61.7138 12.2254 49.5428 11.6097 38.226C11.6336 37.4155 11.9104 36.3649 12.8197 36.1756Z" fill="#1A243D"/>
</g>
<defs>
<clipPath id="clip0_450_1269">
<rect width="81" height="93" fill="white"/>
</clipPath>
</defs>
</svg>
