<svg width="14" height="14" viewBox="0 0 14 14" fill="none" xmlns="http://www.w3.org/2000/svg">
<g clip-path="url(#clip0_457_1800)">
<path d="M1.94233 13.9953C0.89346 13.8402 0.0692258 13.0054 -0.000287904 11.9333V3.15774C-0.0156974 2.22365 1.02016 1.09576 1.95603 1.09576H2.87203V0.453063C2.87203 0.208242 3.20043 -0.00405021 3.43225 5.86709e-05C3.65346 0.00416756 3.96542 0.221254 3.96542 0.453063V1.09542H6.42614V0.453063C6.42648 0.208242 6.75487 -0.00405021 6.9867 5.86709e-05C7.20791 0.00416756 7.51987 0.221254 7.51987 0.453063V1.09542H10.008V0.453063C10.008 0.208242 10.3364 -0.00405021 10.5685 5.86709e-05C10.7898 0.00416756 11.1017 0.221254 11.1017 0.453063V1.09542H12.0451C12.8176 1.09542 13.7775 1.95965 13.9257 2.71398L14.0001 3.03584V6.50682C13.8254 7.12761 12.9635 7.08241 12.9053 6.41197C12.8176 5.39982 12.9878 4.25652 12.9074 3.23957C12.8697 2.7626 12.4502 2.18838 11.9359 2.18838H11.1021V2.83074C11.1021 3.06255 10.7898 3.27963 10.5689 3.28374C10.348 3.28785 10.0087 3.07556 10.0087 2.83074V2.18838H7.52055V2.83074C7.52055 3.06255 7.20825 3.27963 6.98738 3.28374C6.76652 3.28785 6.42717 3.07556 6.42717 2.83074V2.18838H3.96645V2.83074C3.96645 3.06255 3.65415 3.27963 3.43328 3.28374C3.21241 3.28785 2.87306 3.07556 2.87306 2.83074V2.18838H2.06663C1.60435 2.18838 1.09892 2.75472 1.09652 3.21355L1.09515 11.8504C1.14035 12.4202 1.53347 12.8283 2.09745 12.8982C3.48362 12.9941 5.01874 12.7821 6.38779 12.9006C7.05827 12.9588 7.10347 13.8203 6.48264 13.9949H1.94233V13.9953Z" fill="#1A243D"/>
<path d="M10.4185 13.9951C7.64138 13.7674 6.36993 10.3269 8.35021 8.34742C10.3305 6.36797 13.7726 7.63864 14.0003 10.4149V10.9614L13.8558 11.6506C13.5353 12.6963 12.7012 13.5304 11.655 13.8506L10.9657 13.9951C10.7876 13.9845 10.5949 14.0095 10.4188 13.9951H10.4185ZM12.9052 10.6881C12.9052 9.46607 11.9142 8.47583 10.6921 8.47583C9.46997 8.47583 8.47897 9.46641 8.47897 10.6881C8.47897 11.9098 9.46997 12.9004 10.6921 12.9004C11.9142 12.9004 12.9052 11.9098 12.9052 10.6881Z" fill="#1A243D"/>
<path d="M3.41918 6.28975C3.72215 6.28975 3.96776 6.04431 3.96776 5.74155C3.96776 5.43879 3.72215 5.19336 3.41918 5.19336C3.11621 5.19336 2.87061 5.43879 2.87061 5.74155C2.87061 6.04431 3.11621 6.28975 3.41918 6.28975Z" fill="#1A243D"/>
<path d="M5.79772 6.28975C6.10069 6.28975 6.3463 6.04431 6.3463 5.74155C6.3463 5.43879 6.10069 5.19336 5.79772 5.19336C5.49475 5.19336 5.24915 5.43879 5.24915 5.74155C5.24915 6.04431 5.49475 6.28975 5.79772 6.28975Z" fill="#1A243D"/>
<path d="M8.17657 6.28975C8.47954 6.28975 8.72514 6.04431 8.72514 5.74155C8.72514 5.43879 8.47954 5.19336 8.17657 5.19336C7.8736 5.19336 7.62799 5.43879 7.62799 5.74155C7.62799 6.04431 7.8736 6.28975 8.17657 6.28975Z" fill="#1A243D"/>
<path d="M10.5551 6.28975C10.8581 6.28975 11.1037 6.04431 11.1037 5.74155C11.1037 5.43879 10.8581 5.19336 10.5551 5.19336C10.2521 5.19336 10.0065 5.43879 10.0065 5.74155C10.0065 6.04431 10.2521 6.28975 10.5551 6.28975Z" fill="#1A243D"/>
<path d="M3.41918 8.66768C3.72215 8.66768 3.96776 8.42224 3.96776 8.11948C3.96776 7.81672 3.72215 7.57129 3.41918 7.57129C3.11621 7.57129 2.87061 7.81672 2.87061 8.11948C2.87061 8.42224 3.11621 8.66768 3.41918 8.66768Z" fill="#1A243D"/>
<path d="M5.79772 8.66768C6.10069 8.66768 6.3463 8.42224 6.3463 8.11948C6.3463 7.81672 6.10069 7.57129 5.79772 7.57129C5.49475 7.57129 5.24915 7.81672 5.24915 8.11948C5.24915 8.42224 5.49475 8.66768 5.79772 8.66768Z" fill="#1A243D"/>
<path d="M3.41918 11.0446C3.72215 11.0446 3.96776 10.7992 3.96776 10.4964C3.96776 10.1937 3.72215 9.94824 3.41918 9.94824C3.11621 9.94824 2.87061 10.1937 2.87061 10.4964C2.87061 10.7992 3.11621 11.0446 3.41918 11.0446Z" fill="#1A243D"/>
<path d="M5.79772 11.0446C6.10069 11.0446 6.3463 10.7992 6.3463 10.4964C6.3463 10.1937 6.10069 9.94824 5.79772 9.94824C5.49475 9.94824 5.24915 10.1937 5.24915 10.4964C5.24915 10.7992 5.49475 11.0446 5.79772 11.0446Z" fill="#1A243D"/>
<path d="M11.2387 10.1421C11.3321 10.1483 11.4328 10.1326 11.5256 10.1421C12.2005 10.2144 12.1882 11.1553 11.5503 11.232C11.3503 11.256 10.6415 11.2587 10.4737 11.1937C10.2826 11.1197 10.1655 10.9266 10.1456 10.729C10.1158 10.4352 10.1216 9.87918 10.1442 9.58025C10.2007 8.82559 11.1599 8.86839 11.2359 9.50253C11.2602 9.70489 11.2246 9.93602 11.2387 10.1418V10.1421Z" fill="#1A243D"/>
</g>
<defs>
<clipPath id="clip0_457_1800">
<rect width="14" height="14" fill="white"/>
</clipPath>
</defs>
</svg>
