<svg width="60" height="59" viewBox="0 0 60 59" fill="none" xmlns="http://www.w3.org/2000/svg">
<path d="M30 51.625C23.75 51.625 18.4375 49.474 14.0625 45.1719C9.6875 40.8698 7.5 35.6458 7.5 29.5C7.5 23.3542 9.6875 18.1302 14.0625 13.8281C18.4375 9.52604 23.75 7.375 30 7.375C30.5833 7.375 31.1562 7.39549 31.7188 7.43646C32.2812 7.47743 32.8333 7.53889 33.375 7.62083C31.6667 8.80903 30.3021 10.3557 29.2813 12.2609C28.2604 14.1661 27.75 16.225 27.75 18.4375C27.75 22.125 29.0625 25.2594 31.6875 27.8406C34.3125 30.4219 37.5 31.7125 41.25 31.7125C43.5417 31.7125 45.6458 31.2106 47.5625 30.2068C49.4792 29.203 51.0417 27.8611 52.25 26.1812C52.3333 26.7139 52.3958 27.2568 52.4375 27.8099C52.4792 28.363 52.5 28.9264 52.5 29.5C52.5 35.6458 50.3125 40.8698 45.9375 45.1719C41.5625 49.474 36.25 51.625 30 51.625ZM30 46.7083C33.6667 46.7083 36.9583 45.7148 39.875 43.7276C42.7917 41.7405 44.9167 39.149 46.25 35.9531C45.4167 36.158 44.5833 36.3219 43.75 36.4448C42.9167 36.5677 42.0833 36.6292 41.25 36.6292C36.125 36.6292 31.7604 34.8571 28.1562 31.313C24.5521 27.7689 22.75 23.4771 22.75 18.4375C22.75 17.6181 22.8125 16.7986 22.9375 15.9792C23.0625 15.1597 23.2292 14.3403 23.4375 13.5208C20.1875 14.8319 17.5521 16.9215 15.5312 19.7896C13.5104 22.6576 12.5 25.8944 12.5 29.5C12.5 34.2528 14.2083 38.309 17.625 41.6687C21.0417 45.0285 25.1667 46.7083 30 46.7083Z" fill="#F9F9F9"/>
</svg>
