<svg width="12" height="12" viewBox="0 0 12 12" fill="none" xmlns="http://www.w3.org/2000/svg">
<path d="M0 0.5625C0 0.250781 0.2675 0 0.6 0H11.4C11.7325 0 12 0.250781 12 0.5625C12 0.874219 11.7325 1.125 11.4 1.125C11.2895 1.125 11.2 1.21454 11.2 1.325V10.675C11.2 10.7855 11.2895 10.875 11.4 10.875C11.7325 10.875 12 11.1258 12 11.4375C12 11.7492 11.7325 12 11.4 12H0.6C0.2675 12 0 11.7492 0 11.4375C0 11.1258 0.2675 10.875 0.6 10.875C0.710457 10.875 0.8 10.7855 0.8 10.675V1.325C0.8 1.21454 0.710457 1.125 0.6 1.125C0.2675 1.125 0 0.874219 0 0.5625ZM5.2 2.625V3.375C5.2 3.58125 5.38 3.75 5.6 3.75H6.4C6.62 3.75 6.8 3.58125 6.8 3.375V2.625C6.8 2.41875 6.62 2.25 6.4 2.25H5.6C5.38 2.25 5.2 2.41875 5.2 2.625ZM2.8 2.25C2.58 2.25 2.4 2.41875 2.4 2.625V3.375C2.4 3.58125 2.58 3.75 2.8 3.75H3.6C3.82 3.75 4 3.58125 4 3.375V2.625C4 2.41875 3.82 2.25 3.6 2.25H2.8ZM5.2 4.875V5.625C5.2 5.83125 5.38 6 5.6 6H6.4C6.62 6 6.8 5.83125 6.8 5.625V4.875C6.8 4.66875 6.62 4.5 6.4 4.5H5.6C5.38 4.5 5.2 4.66875 5.2 4.875ZM8.4 2.25C8.18 2.25 8 2.41875 8 2.625V3.375C8 3.58125 8.18 3.75 8.4 3.75H9.2C9.42 3.75 9.6 3.58125 9.6 3.375V2.625C9.6 2.41875 9.42 2.25 9.2 2.25H8.4ZM2.4 4.875V5.625C2.4 5.83125 2.58 6 2.8 6H3.6C3.82 6 4 5.83125 4 5.625V4.875C4 4.66875 3.82 4.5 3.6 4.5H2.8C2.58 4.5 2.4 4.66875 2.4 4.875ZM8.4 4.5C8.18 4.5 8 4.66875 8 4.875V5.625C8 5.83125 8.18 6 8.4 6H9.2C9.42 6 9.6 5.83125 9.6 5.625V4.875C9.6 4.66875 9.42 4.5 9.2 4.5H8.4ZM6.8 9H7.895C8.1425 9 8.3325 8.78906 8.245 8.57344C7.9 7.72734 7.025 7.125 6.0025 7.125C4.98 7.125 4.105 7.72734 3.76 8.57344C3.6725 8.78906 3.8625 9 4.11 9H4.2675C4.78527 9 5.205 9.41973 5.205 9.9375V10.075C5.205 10.5168 5.56317 10.875 6.005 10.875C6.44683 10.875 6.805 10.5168 6.805 10.075V9.005C6.805 9.00224 6.80276 9 6.8 9Z" fill="#1A243D"/>
</svg>
