<svg width="90" height="90" viewBox="0 0 90 90" fill="none" xmlns="http://www.w3.org/2000/svg">
<path d="M49.2361 0V2.96737H46.2687V7.50699C66.7604 8.06242 83.644 25.8076 83.4581 46.2665H88.4351C89.2026 46.2665 89.4235 47.8475 89.3929 48.4445C89.1348 53.5439 84.5952 57.7664 79.6183 58.1404C80.9522 60.6704 80.7554 63.3163 78.8398 65.479C72.2884 70.2351 66.1962 76.7712 59.5945 81.3283C58.1579 82.3211 55.8071 83.456 54.0403 83.456H17.8086V88.4329C17.8086 88.7653 16.7437 89.4847 16.3282 89.3973L0 89.3929V86.4255H14.8412V64.0773H0V61.1099L16.5097 61.099L17.2029 61.4139L21.128 58.1426H9.51658C7.76065 58.1426 4.90261 56.6862 3.57528 55.5272C1.56787 53.7757 0.485451 51.4884 0 48.8884V47.3161C0.255846 47.0712 0.568546 46.2687 0.959968 46.2687H5.93693C5.74887 25.8142 22.6391 8.06242 43.1264 7.50918V2.96737H40.159V0H49.2382H49.2361ZM80.4886 46.0938C80.2787 23.3519 59.2731 6.36771 36.8724 11.2944C20.8131 14.8259 8.91961 29.6081 8.9043 46.0938H80.4886ZM86.2506 49.2361H3.14231C3.95577 52.8026 6.8138 54.9018 10.3913 55.1708L78.6649 55.1817C82.2948 55.1118 85.4721 52.8529 86.2506 49.2361ZM17.9835 64.6874V80.4886H53.8632C55.4092 80.4886 57.2679 79.3624 58.4727 78.4637C64.7049 73.8126 70.4953 68.0834 76.7187 63.3622C78.9994 60.7535 75.9708 57.2066 73.1019 59.0479C67.5454 62.5794 62.3389 67.1999 56.7999 70.6812C56.1264 71.1032 55.5994 71.569 54.7335 71.5843C49.1311 71.2475 42.9908 72.0457 37.454 71.5843C31.2307 71.066 31.2328 63.0299 37.454 62.5116C40.7538 62.2361 44.3422 62.7784 47.6704 62.4263C49.8199 61.6347 49.5269 58.6717 47.362 58.1841L26.6714 58.1907L25.5977 58.5143L17.9835 64.694V64.6874ZM69.1395 58.1404H51.6808C52.6167 60.3905 52.0438 63.1348 49.9905 64.5693C47.3074 66.4433 40.7494 64.9848 37.3228 65.5205C35.158 65.8573 35.1952 68.3698 37.629 68.6147C42.9449 69.1483 49.247 68.2998 54.6416 68.5229L69.1395 58.1426V58.1404Z" fill="#1A243D"/>
<path d="M11.9047 78.9621C11.9047 81.4244 9.90826 83.4208 7.44602 83.4208C4.98377 83.4208 2.9873 81.4244 2.9873 78.9621C2.9873 76.4999 4.98377 74.5034 7.44602 74.5034C9.90826 74.5034 11.9047 76.4999 11.9047 78.9621ZM8.92861 78.9556C8.92861 78.1356 8.26385 77.4708 7.44383 77.4708C6.62381 77.4708 5.95905 78.1356 5.95905 78.9556C5.95905 79.7756 6.62381 80.4403 7.44383 80.4403C8.26385 80.4403 8.92861 79.7756 8.92861 78.9556Z" fill="#1A243D"/>
</svg>
