<svg width="16" height="12" viewBox="0 0 16 12" fill="none" xmlns="http://www.w3.org/2000/svg">
<path d="M0.0070967 4.04176C0.00457543 3.91523 -0.00752668 3.73703 0.0070967 3.61788C0.09282 2.91457 0.7423 2.26082 1.39581 2.12005C5.08192 1.52008 8.73927 0.634355 12.4304 0.0733954C13.0703 -0.0236126 13.5216 -0.0858243 14.096 0.298517C14.8408 0.796738 14.8266 1.61656 14.9825 2.43533C15.0228 2.53339 15.2114 2.60668 15.3021 2.68787C15.6758 3.02107 15.9224 3.43494 15.9572 3.95846C15.8508 6.02516 16.0938 8.23841 15.9572 10.2877C15.8921 11.2625 15.1231 11.9168 14.2281 11.9996H1.73467C0.966189 11.9152 0.280907 11.3959 0.0837434 10.5972C0.00407117 8.42189 0.0474371 6.21548 0.0070967 4.04176ZM13.9623 2.24817C13.863 1.61656 13.8469 1.00868 13.0744 1.0071L6.36171 2.24817H13.9623ZM1.83805 3.26833C1.38371 3.33687 1.04737 3.58783 1.00451 4.09132V10.1559C1.05141 10.6963 1.37564 10.9162 1.85973 10.9889H14.1353C14.6133 10.9246 14.9522 10.6879 14.992 10.1575C15.1378 8.20731 14.8796 6.06048 14.992 4.08974C14.9598 3.55356 14.5468 3.2968 14.0733 3.25832L1.83855 3.26833H1.83805Z" fill="#1A243D"/>
<path d="M11.8834 9.47954L10.8935 7.59684L9.99141 8.47782C9.92687 8.62439 10.0953 9.06356 10.0998 9.24334L9.83055 9.5486C9.78315 9.55809 9.7297 9.50168 9.6944 9.47268C9.5164 9.32928 8.56941 8.35129 8.46654 8.18258C8.43276 8.12775 8.40452 8.08083 8.42267 8.01176C8.43125 7.9796 8.62891 7.77241 8.65766 7.76503C8.8049 7.72865 9.232 7.95904 9.41454 7.87311L10.2551 6.95997L8.45394 5.89657C8.36267 5.74473 8.74489 5.4769 8.82406 5.36197L11.0524 6.02943C11.1966 6.02046 11.7134 5.21698 11.9832 5.11734C12.2989 5.00082 12.6569 5.23175 12.6569 5.59184C12.6569 6.04155 11.9757 6.3911 11.7558 6.73959L12.4073 9.04933C12.4063 9.14265 12.0639 9.50115 11.9797 9.51275C11.9504 9.51697 11.9046 9.50115 11.8834 9.47954Z" fill="#1A243D"/>
<path d="M5.33332 4.04199H4.36768V4.92245H5.33332V4.04199Z" fill="#1A243D"/>
<path d="M5.33332 5.80273H4.36768V6.68319H5.33332V5.80273Z" fill="#1A243D"/>
<path d="M5.33332 7.56445H4.36768V8.44491H5.33332V7.56445Z" fill="#1A243D"/>
<path d="M5.33332 9.32422H4.36768V10.2047H5.33332V9.32422Z" fill="#1A243D"/>
</svg>
