<svg width="8" height="8" viewBox="0 0 8 8" fill="none" xmlns="http://www.w3.org/2000/svg">
<path d="M3.33501 6.94827C2.42313 7.49835 1.29827 6.68156 1.53827 5.64401C1.63891 5.20895 1.4908 4.7537 1.1534 4.46119C0.348181 3.76308 0.784944 2.4393 1.84665 2.34714C2.29011 2.30865 2.67786 2.02791 2.85115 1.6179C3.26453 0.63981 4.65063 0.63981 5.06402 1.6179C5.2373 2.02791 5.62505 2.30865 6.06851 2.34714C7.13022 2.4393 7.56698 3.76308 6.76177 4.46119C6.42437 4.7537 6.27626 5.20895 6.37689 5.64401C6.6169 6.68156 5.49204 7.49835 4.58016 6.94827C4.19725 6.71728 3.71792 6.71728 3.33501 6.94827Z" fill="#ECAD27"/>
</svg>
