<svg width="20" height="14" viewBox="0 0 20 14" fill="none" xmlns="http://www.w3.org/2000/svg">
<path d="M10.4386 13.9797L6.37644 13.9038C5.06119 13.8773 3.74267 13.9301 2.45321 13.656C0.491647 13.2465 0.352683 11.2386 0.207272 9.55437C0.00690975 7.18653 0.0844759 4.77572 0.462585 2.42764C0.67604 1.11013 1.51607 0.323954 2.81515 0.238404C7.2005 -0.0720714 11.615 -0.0352769 15.9906 0.109571C16.4528 0.122849 16.9181 0.195425 17.3737 0.278036C19.6231 0.680954 19.6779 2.95635 19.8237 4.87181C19.9691 6.80703 19.9077 8.75219 19.6298 10.6742C19.4068 12.2656 18.9802 13.6002 17.1798 13.729C14.9241 13.8975 12.7201 14.0331 10.458 13.9899C10.4581 13.9797 10.4451 13.9797 10.4386 13.9797ZM8.05045 9.9507C9.75036 8.95329 11.4178 7.9725 13.108 6.98178C11.4049 5.98437 9.74064 5.00358 8.05045 4.01286V9.9507Z" fill="white"/>
</svg>
