<svg width="1450" height="118" viewBox="0 0 1450 118" fill="none" xmlns="http://www.w3.org/2000/svg">
<path d="M345.5 32C183.314 47.0377 0 116 0 116V0H760.943H1450C1450 0 1239.45 85.627 1091.5 104C828.901 136.611 609.317 7.5392 345.5 32Z" fill="#E2E2E2"/>
<path d="M0 116C23.3965 108.75 47.26 101.927 71.161 95.3664C175.986 67.2806 282.4 41.7011 389.807 35.4871C502.58 29.7322 613.464 56.4918 724.198 81.9179C822.409 104.438 924.2 123.588 1026.59 115.275C1149.27 104.612 1266.85 69.0556 1381.07 27.2917C1404.26 18.6457 1427.4 9.6253 1450 0C1426.92 8.38322 1403.38 16.2014 1379.83 23.699C1264 59.8278 1145.61 90.9138 1025.49 98.6469C925.642 104.537 826.668 84.8917 728.615 62.4118C618.306 37.0938 504.368 10.9813 388.878 19.751C279.114 28.8858 173.666 58.5476 70.0687 91.7268C46.4775 99.4468 22.9706 107.486 0 116Z" fill="url(#paint0_linear_496_663)"/>
<defs>
<linearGradient id="paint0_linear_496_663" x1="1451.35" y1="-1.8022" x2="647.741" y2="779.254" gradientUnits="userSpaceOnUse">
<stop stop-color="#442305"/>
<stop offset="0.480769" stop-color="#ECAD27"/>
<stop offset="1" stop-color="#442305"/>
</linearGradient>
</defs>
</svg>
